<?xml version="1.0" encoding="utf-8"?>
<!-- Generator: Adobe Illustrator 21.0.0, SVG Export Plug-In . SVG Version: 6.00 Build 0)  -->
<svg version="1.1" id="Layer_1" xmlns="http://www.w3.org/2000/svg" xmlns:xlink="http://www.w3.org/1999/xlink" x="0px" y="0px"
	 viewBox="0 0 595.3 841.9" style="enable-background:new 0 0 595.3 841.9;" xml:space="preserve">
<style type="text/css">
	.st0{fill:none;}
	.st1{fill:#FFFFFF;}
	.st2{fill:#E5E5A9;}
	.st3{fill:#056065;}
	.st4{fill:#E0E5C7;}
	.st5{fill:#4F2018;}
	.st6{fill:#E9E6D5;}
</style>
<path class="st0" d="M219.6,406.5c0,4.6,0,9.3,0,13.9c0,3.9-1.8,6.2-5.4,7.9c-3.4,1.6-6.5,0.9-9.6-0.7c-1.4-0.8-2.5-1.9-3.3-3.4
	c-1.2-2.5-2-5.1-2.4-8c-0.6-4.7-0.4-9.4,0.2-14.1c0.5-4.1,2-7.9,4.2-11.4c2.9-4.5,9.4-5.9,14.1-3.3c1.5,0.8,2.2,1.9,2.2,3.7
	C219.6,396.2,219.6,401.3,219.6,406.5z"/>
<path class="st0" d="M167,389.9c1.7-0.4,3.4-0.8,5.1-1.2c8.7-1.9,16.2-5.8,21.6-13.1c2.5-3.4,4-7.2,5.5-11.1
	c0.4-1.1,0.9-2.2,1.4-3.5c2,1.5,3.7,2.8,5.3,4.1c2.9,2.4,6.2,3.9,9.6,5.3c0.7,0.3,1.5,0.6,2.2,0.9c1.3,0.5,1.9,1.4,1.9,2.8
	c0,1.9,0,3.8,0,5.8c0,3-0.3,3.2-3.2,2.5c-2.2-0.5-4.4-0.9-6.6-1.1c-5.6-0.5-10.7,1.2-15.5,4.1c-1.3,0.8-1.8,0.9-3.4,2.2
	c-1.9,1.3-3.4,3.3-4.9,5.5c-0.7,1.3-1.7,2-3.2,2c-3,0-5.9,0-8.9,0c-1.4,0-2.5-0.3-3.5-1.3c-1.2-1.1-2.4-2.1-3.5-3.1
	C166.9,390.3,166.9,390.1,167,389.9z"/>
<path class="st0" d="M236.7,402.2c0-7.8,0-15.5,0-23.3c0-0.7,0-1.4,0.1-2.2c0.2-1.5,0.6-1.6,3.4-1.6c2.1,0,2.4,0.2,2.6,1.6
	c0.1,0.5,0,1,0,1.4c0,15.4,0,30.7,0,46.1c0,1.5-0.1,2.9-1.1,4.1c-0.5,0.6-1.2,1.1-1.9,1.3c-2.1,0.6-3-0.1-3-2.3c0-7.7,0-15.4,0-23
	C236.7,403.7,236.7,403,236.7,402.2z"/>
<path class="st1" d="M359.6,439.2c-0.7,0.4-1,0.6-1.3,0.7c-2.7,0.5-5.4,0.6-8.1-0.2c-2.3-0.7-4.1-2.2-4.5-4.8
	c-0.3-1.9-0.8-3.8-0.8-5.7c-0.1-6.2-0.1-12.5,0-18.7c0.1-2.4,0.4-4.8,0.9-7.1c0.5-2.5,2-4.4,4.5-5.3c5-1.7,9.7-1.5,14.2,1.5
	c0.5,0.3,0.8,0.7,1.3,1c1,0.6,1.9,0.3,2.2-0.8c0.2-0.6,0.2-1.3,0.2-1.9c0-1.9,0-3.8,0-5.8c0-3.6,0.1-3.6,3.6-3.7
	c6.8-0.1,13.5-1,20.1-2.8c7.8-2.1,15.6-4,23.4-6c1.6-0.4,3.3-0.6,4.9-1c2.1-0.4,4.2-1,6.3-1.3c2.2-0.3,2.5,0,2.6,2.3
	c0.1,5.4,0.2,10.7,0.3,16.1c0,1.3,0,2.6,0,3.8c0,1.1-0.6,1.6-1.6,1.6c-1.8,0-3.5,0-5.3,0c-1.3,0-2.6,0-3.8,0.1
	c-1.5,0.2-1.9,1-1.6,2.3c0.1,0.5,0.3,1.1,0.7,1.5c1.5,1.8,1.9,4.1,2.1,6.3c0.6,6.2-3.3,10.5-9.1,10.8c-6,0.3-12,0-18-0.2
	c-1.6-0.1-3.2-0.4-4.7-1c-2.4-0.9-3.6-3.1-3.1-5.4c0.1,0,0.3-0.2,0.4-0.1c1,0.3,2,0.6,3,0.9c4.6,1.5,9.3-1.3,10.1-6.1
	c0.2-1.4,0.3-2.9,0.2-4.3c-0.3-3.1-2.6-6.2-5-6.7c-7-1.6-11.8,1.9-13.2,8.7c-0.7,3.4-0.8,6.8-0.2,10.2c0.7,4.3,2.3,8.3,5,11.8
	c3.6,4.6,8.4,7,14,8c7.1,1.2,13.6-0.2,19-5.1c5.4-4.9,7.5-11.3,7.3-18.6c-0.1-1.7-0.3-3.3-1.2-4.8c-0.7-1.3-1.1-2.8-1.7-4.5
	c1.1-0.1,1.9-0.2,2.7-0.2c3.8-0.1,3.9,0,3.9,3.8c0,9.1-0.1,18.2-0.2,27.4c0,1.8-0.2,3.5-0.3,5.3c-0.2,2.2-1.2,3.8-3.5,4.3
	c-1.4,0.3-2.8,0.6-4.2,0.8c-1.3,0.2-1.6,0.6-1.6,2.2c0,1.1,0.4,1.9,1.6,1.9c0.7,0,1.4,0,2.2,0c9.6,0,19.2,0,28.8,0
	c0.6,0,1.1,0,1.7,0c1.7-0.1,2-0.4,2-2c0-1.7-0.4-2.2-2-2.4c-1.4-0.2-2.8-0.4-4.3-0.5c-1.5-0.2-2.4-1-3-2.4c-1.1-2.6-0.6-5.2-0.5-7.8
	c0-0.4,0.8-1,1.3-1.1c0.7-0.2,1.4-0.1,2.1-0.1c8.4,0,16.8,0,25.2,0c0.7,0,1.4,0,2.2,0c1.4-0.1,1.8-0.7,1.8-2.3
	c0-1.4-0.4-1.9-1.8-2.1c-1-0.1-1.9-0.1-2.9-0.2c-3.2-0.3-4.5-1.7-4.6-4.9c0-0.5,0-1,0-1.4c0-13.1,0-26.2,0-39.4c0-0.6,0-1.3,0-1.9
	c0.1-1.6,0.7-1.9,2.2-1.3c5.5,2.5,10.5,5.8,14.7,10.1c3.5,3.7,6.4,7.8,7.7,12.8c0.5,1.7,0.8,3.4,1.3,5.1c0.9,3.3-0.5,6.9-3.4,8.8
	c-1.3,0.8-2.6,1.2-4.1,1c-3.3-0.6-4.8-3.2-3.8-6.6c0.3-1,0.5-1.9-0.5-2.6c-1.1-0.7-2.1-0.3-2.8,0.6c-0.8,1.1-1.8,2.4-2,3.7
	c-0.3,2.3-0.4,4.8,0,7.1c0.9,4.3,3.3,7.9,7.6,9.1c5.6,1.7,10.2,0.4,14-3.8c1.1-1.2,2-2.9,2.5-4.6c1.1-3.7,0.8-7.5,0-11.2
	c-1-4.8-2.9-9.3-5.7-13.4c-6.3-9.1-14-16.6-24.4-20.9c-0.8-0.3-1.4-0.9-2.1-1.4c1.5-3.6,2-7.2,1.8-10.8c-0.4-7.3-3.7-13-9.7-17.1
	c-6-4.1-12.9-4.4-19.6-3.3c-14.2,2.2-19.1,16.7-15.8,26.7c0.2,0.7,0.4,1.5,0.6,2.4c-0.8,0.2-1.4,0.5-2,0.5c-5,0.4-9.7,1.7-14.5,2.9
	c-4.6,1.2-9.1,2.4-13.6,3.6c-1.6,0.4-3.3,0.5-4.9,0.9c-5.7,1.4-11.4,2.5-17.2,3c-2,0.2-4,0.1-6,0.3c-8.5,0.5-16.7-0.2-24.6-3.6
	c-5.9-2.5-11-5.9-14.5-11.4c-3.2-5-6.5-9.9-9.6-14.9c-3.9-6.3-8.8-11.5-15.6-14.8c-7.7-3.7-15.5-3.6-23.2-0.4
	c-3.2,1.3-6.3,3.1-8.6,5.9c-4.1,5.2-8.4,10.3-12.5,15.5c-3.3,4.2-7.2,7.5-12.6,8.4c-1.5,0.3-3,0.4-4.5,0.6
	c-7.4,0.5-14.7,0.3-21.8-2.2c-8.6-3-16.2-7.3-21.3-15.1c-1.3-1.9-2.5-3.9-3.7-5.9c-5.5-9-12.7-15.6-23.3-18.3
	c-7.9-2-15.5-1.5-23.1,1.1c-5.7,1.9-10.6,5.2-14.8,9.4c-7.1,7-12.7,15.2-17.8,23.7c-5.2,8.5-10.9,16.8-17.8,24.1
	c-2.9,3.1-5.9,6.2-9.3,8.6c-6.1,4.3-6.4,10.9-3.8,15.9c3.4,6.6,9.3,9.3,16.2,9.1c3.3-0.1,6.6-1,9.8-1.9c3.6-1.1,7.1-1.1,10.5,0.7
	c2,1,3.9,2.2,5.6,3.6c2.8,2.2,5.4,4.7,8.1,7.1c1.5,1.3,2.4,1.4,3.6,0.3c1.4-1.2,1.4-2.3,0.2-3.9c-0.4-0.5-0.8-1-1.2-1.5
	c-2.8-2.4-5.5-4.9-8.5-7.1c-2.2-1.6-4.7-3-7.3-4.1c-4.8-2-9.6-0.8-14.4,0.4c-2.8,0.7-5.6,1.1-8.5,0.7c-3.2-0.4-6-1.8-8-4.3
	c-2.7-3.5-2.7-7.3,0.2-9.9c3.4-3,6.7-6.1,10-9.3c6.3-6.2,11.4-13.4,16.2-20.8c4.1-6.2,7.9-12.6,12.1-18.7c2.2-3.3,4.8-6.4,7.6-9.3
	c4.1-4.3,9.1-7.3,14.8-8.9c5.4-1.5,10.6-1.1,15.4,2.2c8.4,5.7,10.9,14.2,11,23.7c0,1.9-0.3,3.8-0.5,5.7c-0.1,0.9-0.1,2-0.6,2.8
	c-1.7,3.4-3.2,6.9-5.3,9.9c-3.9,5.7-9.5,8.6-16.6,8.3c-2.6-0.1-5.1,0-7.7,0c-0.7,0-1.4,0-2.2,0.1c-1.1,0.1-1.8,0.7-1.9,1.8
	c-0.1,1.1,0.3,1.9,1.3,2.3c0.6,0.3,1.4,0.4,2.1,0.4c1.5,0.1,3,0.1,4.6,0.2c1.9,0.1,3.2,1.1,3.6,3c0.3,1.5,0.7,3,0.7,4.5
	c-0.1,10.6-0.3,21.1-0.3,31.7c0,5.4,0.3,10.9,2.4,16c2.2,5.5,5.7,10,10.7,13.2c6.1,3.9,12.8,6.5,19.9,8.1c3.3,0.8,6.5,1.6,9.9,1.9
	c3.9,0.4,7.8,0.2,11.7,0.4c7.7,0.4,15.1-1.2,22.5-2.7c5.3-1.1,10.4-3.1,15.6-4.6c5.1-1.5,10.1-3,15.2-4.2c8.2-1.8,16.5-3,24.9-2.8
	c2.8,0.1,5.6,0.3,8.3,1.1c3.9,1,7.2,2.9,10.1,5.7c1.8,1.8,2.4,4,2.3,6.3c-0.1,2.1-1.4,3.7-3.5,4.4c-2.1,0.7-3,0.4-4.7-1.7
	c-0.4-0.4-0.7-0.9-1.1-1.2c-1.4-1.5-3.1-1.2-4,0.6c-0.6,1.2-0.6,2.5,0.2,3.7c2.9,4.4,7.2,6.8,12.3,7.5c2.7,0.4,5.5,0.3,8.3-0.8
	c2.9-1.1,5.2-2.6,7.1-5c5.3-6.8,3.6-17.9-4.2-23.3c-3.2-2.2-6.8-3.5-10.6-4.4c-10-2.2-20.1-1.9-30,0.3c-10.6,2.2-20.9,5.3-31.2,8.6
	c-6.7,2.1-13.5,4-20.3,5.8c-2.9,0.7-6,0.6-9,1.2c-7.9,1.4-15.7,1.1-23.6-0.5c-8.7-1.8-15-6.4-18.4-14.8c-1.7-4.2-3-8.4-3-13
	c0-2.9,0-5.8-0.1-8.6c-0.3-8.3,0.8-16.6-0.8-24.9c-0.3-1.5,0.1-1.8,1.7-1.9c1.4-0.1,2.7,0,4.1,0c2.2,0.1,2.5,0.5,2.1,2.7
	c-0.7,4.6-0.6,9.1,0.5,13.6c1.3,5.1,3.6,9.6,7.8,12.9c4.7,3.6,9.9,6,16.2,5.7c3.6-0.2,7-0.6,10.1-2.5c0.6-0.4,1.3-0.5,1.9-0.8
	c0.3,0.4,0.5,0.6,0.5,0.8c0,3.9,0.1,7.8,0,11.7c-0.1,1.9-1.3,3.2-3.2,3.7c-1.2,0.3-2.4,0.3-3.6,0.4c-1.8,0.2-2.2,0.5-2.2,2.1
	c0,1.5,0.4,1.9,2.3,2c0.3,0,0.6,0,1,0c9.7,0,19.4,0,29,0c0.6,0,1.1,0,1.7,0c1.2-0.1,1.6-0.8,1.6-1.9c0-1.5-0.3-2-1.7-2.1
	c-1.3-0.2-2.7-0.2-4.1-0.4c-2-0.4-3.3-1.6-3.4-3.5c-0.2-2.6-0.1-5.3-0.1-7.9c0-1.1,0.6-1.6,1.7-1.6c0.7,0,1.4,0,2.2,0c8,0,16,0,24,0
	c0.7,0,1.4,0,2.2-0.1c1.3-0.1,1.5-0.9,1.5-2c0-1.1-0.3-1.9-1.5-2c-1-0.1-1.9,0-2.9-0.1c-3-0.2-4.7-1.9-4.9-4.9
	c-0.1-0.6-0.1-1.3-0.1-1.9c0-16.6,0-33.3,0-49.9c0-0.5,0-1,0-1.4c0-1.3,0.6-2.2,1.5-3.1c2.4-2.3,4.6-4.8,6.9-7.3
	c0.9-0.9,1.7-1.9,2.5-2.8c0.4,0.2,0.7,0.3,0.8,0.5c0.4,0.5,0.7,1.1,1,1.6c2.8,4.7,6.7,8.2,11.7,10.2c6.4,2.5,13,3,19.7,1.1
	c6-1.6,10.5-4.9,13.5-10.3c0.3-0.5,0.8-0.9,1.2-1.4c0.4,0.5,0.6,0.7,0.8,1c2.6,3.6,5.2,7.3,7.9,10.8c2.9,3.8,6.3,7,10.4,9.5
	c6.5,3.9,13.7,5.6,21.2,6.4c1.2,0.1,2.4,0.1,3.6,0.2c0.8,0.1,1.4,0.4,1.5,1.3c0.1,1.2,0.4,2.5-0.5,3.9c-1.1-0.2-2.1-0.3-3.2-0.5
	c-6.2-1.4-12.2-0.2-17.7,2.7c-10.3,5.3-15.6,14.8-14.2,27c0.6,4.8,2.5,9,5.8,12.4c6.6,6.7,14.6,9.9,24.1,8.5c1.3-0.2,2.7-0.5,4-0.5
	c0.8,0,1.9,0.1,2.4,0.6c2.2,1.9,3.9,4.3,4.7,7.1c1,3.4-1.7,6.5-5.2,6.1c-1.5-0.2-2.9-0.7-4.1-1.8c-0.5-0.4-0.9-0.9-1.4-1.3
	c-0.8-0.5-1.7-0.8-2.4-0.2c-0.9,0.8-0.4,1.6,0.2,2.4c1.3,1.8,3.1,3.1,5.2,3.7c5.7,1.8,11.1,1.1,16-2.3c6.5-4.5,7.2-13.7,1.6-19.3
	c-0.6-0.6-1.1-1.2-1.8-1.6c-1.1-0.9-1.4-1.8-0.8-3.1c1.1-2.3,1-4.7,0.5-7.1c-0.5-2.5-2.1-4.4-4.4-5.3c-4.3-1.7-8.3-0.8-11.5,2.4
	c-3.2,3.2-4.1,7.3-2.5,11.7C358.6,436.6,359.1,437.8,359.6,439.2z M275.2,421.3c-2.5-0.9-3.6-2.4-4.3-4.2c-1.4-3.6-1.8-7.2-0.4-11
	c2-5.3,7.9-9.5,12.8-9.3c5.6,0.2,11.2,0,16.8,0c1.3,0,2.6,0,3.8,0c1.2,0,1.8,0.6,1.8,1.8c0,0.6,0.1,1.1,0.1,1.7
	c0,10.2,0,20.3,0,30.5c0,0.7,0,1.4-0.1,2.2c-0.4,2.5-1.6,3.7-4.1,3.9c-0.9,0.1-1.8,0-2.6,0.1c-1.5,0.1-2,0.6-2,2.1
	c0,1.5,0.4,1.9,2,2c0.4,0,0.8,0,1.2,0c8.8,0,17.6,0,26.4,0c0.6,0,1.3,0,1.9-0.1c1.3-0.2,1.8-0.8,1.8-2.1c0-1.4-0.6-2.2-2.3-2.1
	c-5.6,0.4-6.7-2.1-6.6-7.1c0.1-11.2,0.1-22.4,0.1-33.6c0-5.2,0-10.4,0-15.6c0-2.6-0.4-3-2.9-3c-3.4,0-6.7-0.1-10.1,0
	c-2.3,0-2.6,0.4-2.7,2.7c0,3,0,6.1,0,9.1c0,3.1-0.2,3.3-3.2,3.3c-6.9,0.1-13.7,0.3-20.6,0.4c-3.9,0.1-7.3,1.6-10.3,4
	c-6.5,5.3-8.7,14.9-4.4,22.8c1.7,3.2,4.1,5.8,7.5,7.1c3.7,1.5,7.5,2.3,11.7,1.4c7.8-1.6,13-8.9,11.4-16.7c-1.7-8.8-9.7-11.4-16-9.1
	c-6.3,2.3-9.5,9.1-7.6,15.7C274.5,419.2,274.8,420,275.2,421.3z"/>
<ellipse class="st2" cx="297.6" cy="394.9" rx="244.3" ry="100.3"/>
<g>
	<g>
		<g>
			<g>
				<path class="st3" d="M359.6,439.2c-0.5-1.4-1-2.5-1.5-3.7c-1.6-4.4-0.7-8.5,2.5-11.7c3.2-3.2,7.2-4.1,11.5-2.4
					c2.3,0.9,3.9,2.8,4.4,5.3c0.5,2.4,0.5,4.8-0.5,7.1c-0.6,1.3-0.4,2.3,0.8,3.1c0.6,0.5,1.2,1.1,1.8,1.6c5.6,5.6,4.9,14.8-1.6,19.3
					c-4.9,3.4-10.3,4.1-16,2.3c-2.1-0.7-3.9-1.9-5.2-3.7c-0.5-0.7-1-1.6-0.2-2.4c0.8-0.7,1.7-0.4,2.4,0.2c0.5,0.4,1,0.8,1.4,1.3
					c1.1,1.1,2.6,1.6,4.1,1.8c3.5,0.4,6.2-2.7,5.2-6.1c-0.8-2.8-2.5-5.2-4.7-7.1c-0.6-0.5-1.6-0.6-2.4-0.6c-1.4,0-2.7,0.3-4,0.5
					c-9.5,1.4-17.5-1.8-24.1-8.5c-3.3-3.4-5.3-7.6-5.8-12.4c-1.4-12.2,3.9-21.7,14.2-27c5.5-2.8,11.5-4,17.7-2.7
					c1.1,0.2,2.2,0.4,3.2,0.5c0.9-1.4,0.6-2.7,0.5-3.9c-0.1-0.9-0.7-1.2-1.5-1.3c-1.2-0.1-2.4-0.1-3.6-0.2
					c-7.5-0.7-14.6-2.5-21.2-6.4c-4.1-2.5-7.5-5.7-10.4-9.5c-2.7-3.5-5.3-7.2-7.9-10.8c-0.2-0.3-0.4-0.5-0.8-1
					c-0.5,0.5-0.9,0.9-1.2,1.4c-3.1,5.3-7.5,8.6-13.5,10.3c-6.8,1.8-13.3,1.4-19.7-1.1c-5.1-2-8.9-5.5-11.7-10.2
					c-0.3-0.5-0.7-1.1-1-1.6c-0.1-0.2-0.3-0.7-0.8-0.5c-0.8,0.9-1.7,1.9-2.5,2.8c-2.3,2.4-4.5,4.9-6.9,7.3c-0.9,0.9-1.6,1.8-1.5,3.1
					c0,0.5,0,1,0,1.4c0,16.6,0,33.3,0,49.9c0,0.6,0,1.3,0.1,1.9c0.3,3,2,4.6,4.9,4.9c1,0.1,1.9,0.1,2.9,0.1c1.3,0.1,1.5,0.9,1.5,2
					c0,1.1-0.3,1.9-1.5,2c-0.7,0-1.4,0.1-2.2,0.1c-8,0-16,0-24,0c-0.7,0-1.4,0-2.2,0c-1.1,0-1.7,0.6-1.7,1.6c0,2.6-0.1,5.3,0.1,7.9
					c0.1,1.9,1.4,3.2,3.4,3.5c1.3,0.2,2.7,0.3,4.1,0.4c1.3,0.2,1.7,0.6,1.7,2.1c0,1.1-0.4,1.9-1.6,1.9c-0.6,0-1.1,0-1.7,0
					c-9.7,0-19.4,0-29,0c-0.3,0-0.6,0-1,0c-1.9-0.1-2.3-0.5-2.3-2c0-1.6,0.4-2,2.2-2.1c1.2-0.1,2.4-0.2,3.6-0.4
					c1.9-0.5,3.2-1.8,3.2-3.7c0.1-3.9,0.1-7.8,0-11.7c0-0.2,0-0.9-0.5-0.8c-0.5,0.2-1.3,0.5-1.9,0.8c-3.1,2-6.5,2.4-10.1,2.5
					c-6.2,0.3-11.4-2-16.2-5.7c-4.2-3.3-6.6-7.8-7.8-12.9c-1.1-4.5-1.2-9-0.5-13.6c0.3-2.2,0.1-2.6-2.1-2.7c-1.4-0.1-2.7-0.1-4.1,0
					c-1.5,0.1-1.9,0.5-1.7,1.9c1.6,8.3,0.5,16.6,0.8,24.9c0.1,2.9,0.1,5.8,0.1,8.6c0.1,4.6,1.4,8.8,3,13c3.3,8.4,9.6,13,18.4,14.8
					c7.9,1.6,15.7,2,23.5,0.9c3.4-0.5,6.2-0.9,9.1-1.6c6.8-1.7,13.6-3.6,20.3-5.8c10.3-3.3,20.6-6.3,31.2-8.6c9.9-2.1,20-2.4,30-0.3
					c3.8,0.8,7.4,2.1,10.6,4.4c7.8,5.4,9.5,16.5,4.2,23.3c-1.9,2.4-4.2,4-7.1,5c-2.8,1-5.5,1.2-8.3,0.8c-5.1-0.8-9.4-3.1-12.3-7.5
					c-0.8-1.1-0.8-2.4-0.2-3.7c0.9-1.8,2.6-2.1,4-0.6c0.4,0.4,0.8,0.8,1.1,1.2c1.4,1.5,2.9,2.2,4.7,1.7c1.9-0.4,3.7-2.1,3.8-4.2
					c0.5-2.4-0.8-4.7-2.6-6.5c-2.9-2.8-6.2-4.7-10.1-5.7c-2.7-0.7-5.5-1-8.3-1.1c-8.5-0.2-16.8,1-24.9,2.8
					c-5.1,1.2-10.2,2.7-15.2,4.2c-5.2,1.5-10.4,2.8-15.6,4.2c-7.4,1.5-14.6,2.9-22.6,3.1c-3.8-0.1-7.6,0.3-11.7-0.4
					c-3.3-0.3-6.6-1.1-9.9-1.9c-7-1.7-13.8-4.3-19.9-8.1c-5-3.2-8.5-7.7-10.7-13.2c-2.1-5.2-2.4-10.6-2.4-16
					c0-10.6,0.3-21.1,0.3-31.7c0-1.5-0.3-3-0.7-4.5c-0.4-1.9-1.8-2.8-3.6-3c-1.5-0.1-3-0.1-4.6-0.2c-0.7,0-1.4-0.2-2.1-0.4
					c-1-0.4-1.4-1.3-1.3-2.3c0.1-1.1,0.9-1.7,1.9-1.8c0.7-0.1,1.4-0.1,2.2-0.1c2.6,0,5.1-0.1,7.7,0c7.1,0.3,12.7-2.6,16.6-8.3
					c2.1-3.1,3.6-6.6,5.3-9.9c0.4-0.8,0.4-1.9,0.6-2.8c0.2-1.9,0.5-3.8,0.5-5.7c-0.1-9.5-2.6-18-11-23.7c-4.7-3.2-10-3.6-15.4-2.2
					c-5.8,1.6-10.8,4.6-14.8,8.9c-2.7,2.9-5.3,6-7.6,9.3c-4.2,6.1-8,12.5-12.1,18.7c-4.8,7.4-9.8,14.6-16.2,20.8
					c-3.3,3.2-6.6,6.3-10,9.3c-2.9,2.6-2.9,6.4-0.2,9.9c2,2.6,4.8,3.9,8,4.3c2.9,0.3,5.7,0,8.5-0.7c4.7-1.2,9.6-2.5,14.4-0.4
					c2.6,1.1,5,2.5,7.3,4.1c3,2.2,5.7,4.7,8.5,7.1c0.5,0.4,0.9,0.9,1.2,1.5c1.2,1.7,1.2,2.7-0.2,3.9c-1.2,1-2.1,1-3.6-0.3
					c-2.7-2.4-5.3-4.8-8.1-7.1c-1.7-1.4-3.7-2.6-5.6-3.6c-3.3-1.7-6.8-1.7-10.5-0.7c-3.2,0.9-6.5,1.9-9.8,1.9
					c-6.9,0.2-12.8-2.6-16.2-9.1c-2.6-5-2.3-11.6,3.8-15.9c3.4-2.4,6.4-5.5,9.3-8.6c6.9-7.3,12.6-15.5,17.8-24.1
					c5.2-8.5,10.7-16.7,17.8-23.7c4.3-4.2,9.1-7.5,14.8-9.4c7.6-2.6,15.2-3.1,23.1-1.1c10.6,2.7,17.8,9.3,23.3,18.3
					c1.2,2,2.4,3.9,3.7,5.9c5.1,7.8,12.7,12.1,21.3,15.1c7.1,2.5,14.4,2.7,21.8,2.2c1.5-0.1,3-0.3,4.5-0.6c5.4-0.9,9.3-4.2,12.6-8.4
					c4.1-5.2,8.3-10.3,12.5-15.5c2.3-2.8,5.4-4.6,8.6-5.9c7.8-3.2,15.5-3.3,23.2,0.4c6.8,3.3,11.7,8.5,15.6,14.8
					c3.1,5,6.5,9.9,9.6,14.9c3.5,5.5,8.6,8.9,14.5,11.4c7.9,3.4,16.2,4.1,24.6,3.6c2-0.1,4-0.1,6-0.3c5.8-0.4,11.5-1.5,17.2-3
					c1.6-0.4,3.3-0.5,4.9-0.9c4.6-1.2,9.1-2.4,13.6-3.6c4.8-1.2,9.6-2.5,14.5-2.9c0.6,0,1.2-0.3,2-0.5c-0.2-0.9-0.3-1.7-0.6-2.4
					c-3.3-10,1.6-24.5,15.8-26.7c6.8-1.1,13.6-0.8,19.6,3.3c6,4.1,9.3,9.8,9.7,17.1c0.2,3.6-0.4,7.2-1.8,10.8
					c0.7,0.5,1.4,1.1,2.1,1.4c10.4,4.3,18.1,11.7,24.4,20.9c2.8,4.1,4.7,8.5,5.7,13.4c0.8,3.7,1.1,7.5,0,11.2
					c-0.5,1.6-1.3,3.3-2.5,4.6c-3.8,4.2-8.4,5.5-14,3.8c-4.3-1.3-6.7-4.9-7.6-9.1c-0.5-2.3-0.3-4.8,0-7.1c0.2-1.3,1.2-2.6,2-3.7
					c0.6-0.9,1.7-1.3,2.8-0.6c1,0.7,0.8,1.6,0.5,2.6c-1,3.4,0.5,6,3.8,6.6c1.5,0.3,2.9-0.2,4.1-1c2.9-1.8,4.2-5.3,3.4-8.8
					c-0.3-1.7-0.8-3.4-1.3-5.1c-1.4-5-4.2-9.1-7.7-12.8c-4.2-4.4-9.2-7.6-14.7-10.1c-1.5-0.7-2.1-0.4-2.2,1.3c-0.1,0.6,0,1.3,0,1.9
					c0,13.1,0,26.2,0,39.4c0,0.5,0,1,0,1.4c0.1,3.2,1.4,4.6,4.6,4.9c1,0.1,1.9,0.1,2.9,0.2c1.4,0.1,1.7,0.6,1.8,2.1
					c0,1.6-0.4,2.1-1.8,2.3c-0.7,0.1-1.4,0-2.2,0c-8.4,0-16.8,0-25.2,0c-0.7,0-1.5-0.1-2.1,0.1c-0.5,0.2-1.3,0.7-1.3,1.1
					c-0.1,2.6-0.6,5.2,0.5,7.8c0.6,1.4,1.4,2.2,3,2.4c1.4,0.2,2.8,0.4,4.3,0.5c1.6,0.2,2,0.7,2,2.4c0,1.6-0.3,1.9-2,2
					c-0.6,0-1.1,0-1.7,0c-9.6,0-19.2,0-28.8,0c-0.7,0-1.4,0-2.2,0c-1.2,0-1.6-0.8-1.6-1.9c0-1.5,0.3-1.9,1.6-2.2
					c1.4-0.3,2.8-0.5,4.2-0.8c2.3-0.5,3.3-2.1,3.5-4.3c0.2-1.8,0.3-3.5,0.3-5.3c0.1-9.1,0.1-18.2,0.2-27.4c0-3.8-0.1-3.9-3.9-3.8
					c-0.8,0-1.5,0.1-2.7,0.2c0.7,1.7,1.1,2.6,1.7,4.5c0.6,2,1.1,3.7,1.2,5.4c0.2,7.2-1.9,13.1-7.3,18c-5.4,4.9-11.9,6.2-19,5.1
					c-5.7-0.9-10.5-3.4-14-8c-2.7-3.5-4.3-7.4-5-11.8c-0.6-3.4-0.5-6.8,0.2-10.2c1.4-6.8,6.2-10.3,13.2-8.7c2.5,0.6,4.8,3.6,5,6.7
					c0.1,1.4,0.1,2.9-0.2,4.3c-0.8,4.8-5.5,7.5-10.1,6.1c-1-0.3-2-0.6-3-0.9c-0.1,0-0.3,0.1-0.4,0.1c-0.5,2.3,0.7,4.6,3.1,5.4
					c1.5,0.5,3.1,0.9,4.7,1c6,0.2,12,0.5,18,0.2c5.8-0.3,9.7-4.5,9.1-10.8c-0.2-2.2-0.6-4.4-2.1-6.3c-0.3-0.4-0.6-1-0.7-1.5
					c-0.4-1.4,0.1-2.2,1.6-2.3c1.3-0.1,2.6-0.1,3.8-0.1c1.8,0,3.5,0,5.3,0c1.1,0,1.6-0.6,1.6-1.6c0-1.3,0-2.6,0-3.8
					c-0.1-5.4-0.2-10.7-0.3-16.1c-0.1-2.2-0.4-2.6-2.6-2.3c-2.1,0.3-4.2,0.8-6.3,1.3c-1.6,0.3-3.3,0.6-4.9,1c-7.8,2-15.6,3.9-23.4,6
					c-6.6,1.8-13.3,2.6-20.1,2.8c-3.6,0.1-3.6,0.1-3.6,3.7c0,1.9,0,3.8,0,5.8c0,0.6,0,1.3-0.2,1.9c-0.3,1.1-1.2,1.4-2.2,0.8
					c-0.5-0.3-0.9-0.7-1.3-1c-4.5-3-9.3-3.2-14.2-1.5c-2.5,0.9-3.9,2.8-4.5,5.3c-0.5,2.3-0.9,4.7-0.9,7.1c-0.1,6.2-0.1,12.5,0,18.7
					c0,1.9,0.5,3.8,0.8,5.7c0.4,2.6,2.2,4.1,4.5,4.8c2.6,0.8,5.4,0.8,8.1,0.2C358.6,439.8,359,439.5,359.6,439.2z M219.6,406.5
					c0-5.1,0-10.2,0-15.4c0-1.7-0.7-2.8-2.2-3.7c-4.7-2.6-11.1-1.2-14.1,3.3c-2.3,3.4-3.7,7.2-4.2,11.4c-0.5,4.7-0.8,9.4-0.2,14.1
					c0.4,2.8,1.2,5.4,2.4,8c0.7,1.5,1.8,2.6,3.3,3.4c3.1,1.6,6.1,2.3,9.6,0.7c3.6-1.7,5.4-3.9,5.4-7.9
					C219.6,415.7,219.6,411.1,219.6,406.5z M167,389.9c-0.1,0.2-0.1,0.4-0.2,0.6c1.2,1,2.4,2.1,3.5,3.1c1,0.9,2.1,1.3,3.5,1.3
					c3-0.1,5.9-0.1,8.9,0c1.6,0,2.6-0.6,3.2-2c1.5-2.1,3.1-4.1,5.1-5.4c1.6-1.2,1.5-1.3,3.3-2.2c4.7-2.9,9.9-4.6,15.5-4.1
					c2.2,0.2,4.4,0.6,6.6,1.1c2.9,0.7,3.1,0.6,3.2-2.5c0-1.9,0-3.8,0-5.8c0-1.4-0.6-2.3-1.9-2.8c-0.7-0.3-1.5-0.6-2.2-0.9
					c-3.4-1.4-6.7-2.9-9.6-5.3c-1.6-1.4-3.4-2.6-5.3-4.1c-0.5,1.4-1,2.4-1.4,3.5c-1.5,3.9-3,7.8-5.5,11.1
					c-5.4,7.4-12.9,11.2-21.6,13.1C170.4,389.1,168.7,389.5,167,389.9z M283.6,355.6c0.4,2.3,0.5,4.6,1.2,6.8
					c1.5,5.1,6.4,7.6,11.5,6.2c4.5-1.2,6.7-4.5,7.7-8.6c0.8-3.5,0.9-7.1,0.1-10.7c-1-4.8-4.3-7.2-8.9-8.3c-3-0.7-7.6,1.7-9.4,4.9
					C284.1,348.9,283.9,352.2,283.6,355.6z M449.2,357.8C449.2,357.9,449.2,357.6,449.2,357.8c-3,0-5.9,0.3-8.9,0.5
					c-1.6,0.1-3.3,0.6-4.9,1.2c-1.6,0.6-2.5,1.8-3.1,3.4c-1,2.9,0,5.5,0.9,8.1c0.1,0.4,1,0.8,1.5,0.8c3.9-0.1,7.8-0.5,11.7-0.6
					c4.9-0.1,9.7,0.7,14.5,1.6c4.7,0.9,4.9,0.6,6.1-3.6c1.3-4.8-0.1-9.3-6.2-10.3C457,358.2,453.1,358.1,449.2,357.8z M446.2,403.2
					c0,7.7,0,15.3,0,23c0,0.6,0,1.3,0,1.9c0.2,1.5,0.8,1.9,2.3,1.6c2.1-0.5,3.7-2.4,3.8-4.6c0.1-4.9,0.1-9.9,0.2-14.8
					c0.1-10.1,0.2-20.1,0.3-30.2c0-3.8-0.1-3.9-3.9-3.8c-0.3,0-0.6,0-1,0c-1.2,0-1.7,0.6-1.7,1.8c0,0.6,0,1.3,0,1.9
					C446.2,387.7,446.2,395.5,446.2,403.2z M236.7,402.2c0,0.7,0,1.4,0,2.2c0,7.7,0,15.4,0,23c0,2.2,1,2.9,3,2.3
					c0.7-0.2,1.4-0.7,1.9-1.3c1-1.1,1.1-2.6,1.1-4.1c0-15.4,0-30.7,0-46.1c0-0.5,0-1,0-1.4c-0.2-1.4-0.6-1.6-2.6-1.6
					c-2.8,0-3.2,0.2-3.4,1.6c-0.1,0.7-0.1,1.4-0.1,2.2C236.7,386.7,236.7,394.5,236.7,402.2z M373.2,429.7c-0.1-2.5-1.1-4.1-3.1-5
					c-1.5-0.7-2.9-0.3-4,1.1c-0.9,1.1-1,2.4,0.3,3.6c1.1,1.1,2.4,2.1,3.8,2.8c1.2,0.7,2.1,0.3,2.7-1
					C373,430.6,373.1,430,373.2,429.7z"/>
			</g>
		</g>
		<g>
			<path class="st3" d="M275.2,421.3c-0.4-1.3-0.6-2.1-0.8-2.9c-2-6.6,1.3-13.3,7.6-15.7c6.2-2.3,14.2,0.3,16,9.1
				c1.5,7.8-3.6,15.1-11.4,16.7c-4.2,0.8-8,0-11.7-1.4c-3.4-1.3-5.8-4-7.5-7.1c-4.2-7.9-2.1-17.5,4.4-22.8c3-2.4,6.4-4,10.3-4
				c6.9-0.1,13.7-0.3,20.6-0.4c3-0.1,3.2-0.2,3.2-3.3c0-3,0-6.1,0-9.1c0-2.3,0.4-2.7,2.7-2.7c3.4,0,6.7,0,10.1,0
				c2.4,0,2.9,0.5,2.9,3c0,5.2,0,10.4,0,15.6c0,11.2,0.1,22.4-0.1,33.6c-0.1,5,1,7.5,6.6,7.1c1.7-0.1,2.3,0.6,2.3,2.1
				c0,1.3-0.5,1.9-1.8,2.1c-0.6,0.1-1.3,0.1-1.9,0.1c-8.8,0-17.6,0-26.4,0c-0.4,0-0.8,0-1.2,0c-1.6-0.1-2-0.6-2-2c0-1.5,0.4-2,2-2.1
				c0.9-0.1,1.8,0,2.6-0.1c2.5-0.2,3.7-1.4,4.1-3.9c0.1-0.7,0.1-1.4,0.1-2.2c0-10.2,0-20.3,0-30.5c0-0.6,0-1.1-0.1-1.7
				c-0.1-1.1-0.7-1.8-1.8-1.8c-1.3,0-2.6,0-3.8,0c-5.6,0-11.2,0.2-16.8,0c-4.9-0.2-10.8,4-12.8,9.3c-1.4,3.8-1,7.4,0.4,11
				C271.6,418.9,272.6,420.4,275.2,421.3z"/>
		</g>
	</g>
</g>
<path class="st0" d="M283.6,355.6c0.3-3.4,0.5-6.8,2.3-9.8c1.8-3.2,6.4-5.6,9.4-4.9c4.6,1.1,7.8,3.5,8.9,8.3
	c0.8,3.6,0.7,7.2-0.1,10.7c-1,4.1-3.2,7.4-7.7,8.6c-5.1,1.4-10-1.1-11.5-6.2C284.1,360.2,284,357.9,283.6,355.6z"/>
<path class="st0" d="M456,357.8c3.9,0.3,7.8,0.4,11.7,1c6.1,1,7.5,5.5,6.2,10.3c-1.2,4.3-1.4,4.5-6.1,3.6c-4.8-0.9-9.6-1.7-14.5-1.6
	c-3.9,0.1-7.8,0.4-11.7,0.6c-0.5,0-1.4-0.4-1.5-0.8c-0.9-2.6-1.9-5.2-0.9-8.1c0.6-1.6,1.5-2.9,3.1-3.4c1.6-0.6,3.2-1.1,4.9-1.2
	c2.9-0.2,5.8-0.4,8.7-0.4C455.9,357.7,456,357.9,456,357.8z"/>
<path class="st0" d="M453.1,403.2c0-7.7,0-15.5,0-23.2c0-0.6,0-1.3,0-1.9c0-1.2,0.5-1.8,1.7-1.8c0.3,0,0.6,0,1,0
	c3.8-0.1,3.9,0,3.9,3.8c-0.1,10.1-0.2,20.1-0.3,30.2c-0.1,4.9-0.1,9.9-0.2,14.8c-0.1,2.3-1.7,4.2-3.8,4.6c-1.5,0.3-2.1-0.1-2.3-1.6
	c-0.1-0.6,0-1.3,0-1.9C453.1,418.6,453.1,410.9,453.1,403.2z"/>
<path class="st0" d="M373.2,429.7c-0.1,0.3-0.2,1-0.4,1.5c-0.5,1.3-1.4,1.7-2.7,1c-1.4-0.8-2.7-1.7-3.8-2.8
	c-1.3-1.3-1.2-2.5-0.3-3.6c1.1-1.4,2.6-1.8,4-1.1C372.1,425.6,373,427.2,373.2,429.7z"/>
</svg>
